<?xml version="1.0" encoding="UTF-8" ?>
<!DOCTYPE svg PUBLIC "-//W3C//DTD SVG 1.1//EN" "http://www.w3.org/Graphics/SVG/1.1/DTD/svg11.dtd">
<svg width="100pt" height="65pt" viewBox="0 0 100 65" version="1.1" xmlns="http://www.w3.org/2000/svg">
<path fill="#ffffff" d=" M 0.00 0.00 L 6.00 0.00 C 6.08 21.67 5.68 43.34 6.39 65.00 L 0.00 65.00 L 0.00 0.00 Z" />
<path fill="#000000" d=" M 6.00 0.00 L 11.40 0.00 C 11.17 4.05 10.91 8.10 10.60 12.14 C 9.76 18.08 8.41 24.35 10.68 30.12 C 11.55 32.41 12.91 34.56 15.12 35.79 C 27.18 44.10 40.76 49.98 52.76 58.39 C 54.81 59.82 55.46 62.36 56.42 64.53 C 50.87 62.94 45.82 60.09 40.90 57.12 C 31.11 51.17 21.30 45.23 11.29 39.64 C 11.06 48.09 10.97 56.55 10.58 65.00 L 6.39 65.00 C 5.68 43.34 6.08 21.67 6.00 0.00 Z" />
<path fill="#fefefe" d=" M 11.40 0.00 L 100.00 0.00 L 100.00 5.70 C 87.44 2.49 74.07 2.05 61.32 4.31 C 58.32 5.19 53.43 6.70 54.14 10.69 C 60.02 16.50 69.41 15.16 76.96 16.13 C 78.31 32.41 78.69 48.77 80.64 65.00 L 65.48 65.00 C 66.03 50.43 66.10 35.85 65.80 21.28 C 64.29 21.27 62.78 21.27 61.27 21.27 C 60.93 35.84 60.92 50.43 61.40 65.00 L 10.58 65.00 C 10.97 56.55 11.06 48.09 11.29 39.64 C 21.30 45.23 31.11 51.17 40.90 57.12 C 45.82 60.09 50.87 62.94 56.42 64.53 C 55.46 62.36 54.81 59.82 52.76 58.39 C 40.76 49.98 27.18 44.10 15.12 35.79 C 12.91 34.56 11.55 32.41 10.68 30.12 C 16.48 35.63 23.48 41.30 32.00 40.71 C 43.76 41.65 56.47 31.53 54.89 19.04 C 53.59 8.33 42.51 0.45 32.00 1.23 C 23.50 0.67 15.78 5.81 10.60 12.14 C 10.91 8.10 11.17 4.05 11.40 0.00 Z" />
<path fill="#ec1b24" d=" M 10.60 12.14 C 15.78 5.81 23.50 0.67 32.00 1.23 C 42.51 0.45 53.59 8.33 54.89 19.04 C 56.47 31.53 43.76 41.65 32.00 40.71 C 23.48 41.30 16.48 35.63 10.68 30.12 C 8.41 24.35 9.76 18.08 10.60 12.14 Z" />
<path fill="#ed1b24" d=" M 61.32 4.31 C 74.07 2.05 87.44 2.49 100.00 5.70 L 100.00 13.50 C 94.06 14.59 88.09 15.53 82.07 16.01 C 80.37 16.10 78.66 16.14 76.96 16.13 C 69.41 15.16 60.02 16.50 54.14 10.69 C 53.43 6.70 58.32 5.19 61.32 4.31 Z" />
<path fill="#ffffff" d=" M 28.44 6.43 C 38.39 3.89 51.26 11.70 49.72 22.86 C 48.97 31.60 38.95 36.43 30.97 35.93 C 24.27 35.31 15.97 31.78 14.60 24.35 C 11.99 15.72 20.12 7.14 28.44 6.43 Z" />
<path fill="#ffffff" d=" M 61.56 9.57 C 72.75 7.82 84.25 7.46 95.44 9.43 C 84.25 11.18 72.75 11.54 61.56 9.57 Z" />
<path fill="#fefefe" d=" M 82.07 16.01 C 88.09 15.53 94.06 14.59 100.00 13.50 L 100.00 65.00 L 84.55 65.00 C 84.46 48.64 83.33 32.31 82.07 16.01 Z" />
<path fill="#000000" d=" M 76.96 16.13 C 78.66 16.14 80.37 16.10 82.07 16.01 C 83.33 32.31 84.46 48.64 84.55 65.00 L 80.64 65.00 C 78.69 48.77 78.31 32.41 76.96 16.13 Z" />
<path fill="#000000" d=" M 61.27 21.27 C 62.78 21.27 64.29 21.27 65.80 21.28 C 66.10 35.85 66.03 50.43 65.48 65.00 L 61.40 65.00 C 60.92 50.43 60.93 35.84 61.27 21.27 Z" />
</svg>
